<svg xml:space="preserve" viewBox="136.192 121.60000000000001 748.544 314.944" width="748.544" y="0px" x="0px" xmlns:xlink="http://www.w3.org/1999/xlink" xmlns="http://www.w3.org/2000/svg" id="Layer_1" version="1.1" style="max-height: 500px" height="314.944">
<path d="M411.570007,278.999817 &#10;&#9;C412.161987,255.511520 410.525269,232.523331 411.555786,209.536575 &#10;&#9;C411.762146,204.933502 410.059692,202.705505 405.137207,203.211472 &#10;&#9;C402.004669,203.533447 398.805969,203.367889 395.645447,203.228516 &#10;&#9;C389.141937,202.941742 384.259796,198.834625 384.054688,193.632111 &#10;&#9;C383.851990,188.490601 387.949615,183.777100 394.243713,183.242126 &#10;&#9;C403.530060,182.452820 412.902588,182.355545 422.184204,183.330078 &#10;&#9;C427.988678,183.939499 430.657990,187.065887 431.403534,192.826675 &#10;&#9;C431.744415,195.460739 431.861694,198.140244 431.863129,200.799271 &#10;&#9;C431.891052,252.628479 431.894501,304.457703 431.871246,356.286926 &#10;&#9;C431.869751,359.614288 431.724518,362.951019 431.447540,366.266815 &#10;&#9;C430.860504,373.295563 427.873810,376.665222 420.768982,377.007385 &#10;&#9;C412.124634,377.423676 403.434052,377.379303 394.784637,377.021820 &#10;&#9;C388.509399,376.762482 383.840179,371.823639 383.994263,366.594788 &#10;&#9;C384.138275,361.707214 388.916870,357.341492 395.017273,356.882782 &#10;&#9;C398.664001,356.608551 402.353516,356.645721 406.009644,356.827515 &#10;&#9;C409.600311,357.006042 411.353546,356.250732 411.335632,351.954742 &#10;&#9;C411.234772,327.803833 411.457550,303.651611 411.570007,278.999817 &#10;z" stroke="none" opacity="1.000000" fill="#000000"/>
<path d="M192.661682,349.999481 &#10;&#9;C192.662933,299.022400 192.660965,248.545151 192.667816,198.067917 &#10;&#9;C192.669418,186.187256 195.935440,182.894241 207.741135,182.856201 &#10;&#9;C213.904938,182.836334 220.069107,182.833130 226.232620,182.882828 &#10;&#9;C227.889648,182.896194 229.577042,182.969818 231.195129,183.293030 &#10;&#9;C236.922714,184.437088 240.466904,188.500015 240.287613,193.537659 &#10;&#9;C240.115494,198.373749 236.015549,202.600754 230.422775,203.128937 &#10;&#9;C226.457855,203.503387 222.423248,203.475174 218.441910,203.244415 &#10;&#9;C214.600708,203.021759 213.187332,204.271576 213.197525,208.315720 &#10;&#9;C213.317963,256.127228 213.318451,303.939178 213.212326,351.750702 &#10;&#9;C213.203384,355.783447 214.662048,357.067871 218.486496,356.810883 &#10;&#9;C221.968170,356.576935 225.490662,356.609497 228.975357,356.833160 &#10;&#9;C235.953232,357.281067 240.370453,361.401093 240.280624,367.102905 &#10;&#9;C240.193756,372.616425 235.958755,376.818085 229.225189,377.083313 &#10;&#9;C220.577164,377.423920 211.895477,377.415161 203.247131,377.076294 &#10;&#9;C196.783615,376.822998 193.014877,372.624542 192.733368,365.990112 &#10;&#9;C192.514603,360.834778 192.671661,355.663513 192.661682,349.999481 &#10;z" stroke="none" opacity="1.000000" fill="#000000"/>
<path d="M469.113464,203.380219 &#10;&#9;C476.562469,185.653702 500.035950,174.429611 521.945251,187.252991 &#10;&#9;C523.264221,182.826706 526.770203,182.617416 530.561646,182.857361 &#10;&#9;C532.716736,182.993774 534.906189,183.074066 537.046753,182.854187 &#10;&#9;C541.669800,182.379272 544.044556,183.970016 543.386353,188.944717 &#10;&#9;C543.213257,190.252426 543.376587,191.603912 543.376160,192.935303 &#10;&#9;C543.367432,221.061005 543.277954,249.187134 543.429749,277.311951 &#10;&#9;C543.453735,281.750122 542.331482,283.753632 537.577271,283.341705 &#10;&#9;C533.447449,282.983856 529.260559,283.181763 525.102661,283.285187 &#10;&#9;C521.913940,283.364471 520.632568,281.987122 520.694153,278.802246 &#10;&#9;C520.826050,271.981232 520.790161,265.156219 520.753479,258.333221 &#10;&#9;C520.744873,256.733429 521.265991,255.030502 519.902405,253.113586 &#10;&#9;C512.530762,256.842773 504.623535,258.323517 496.364807,256.907684 &#10;&#9;C474.576630,253.172501 461.383484,231.723358 467.121368,209.427444 &#10;&#9;C467.617432,207.499847 468.341248,205.630844 469.113464,203.380219 &#10;M521.627441,223.792999 &#10;&#9;C521.697083,221.963440 521.843079,220.133011 521.822632,218.304459 &#10;&#9;C521.746338,211.484589 518.759827,206.364838 512.416626,203.719055 &#10;&#9;C506.111938,201.089310 499.980560,201.760056 494.572235,206.148071 &#10;&#9;C488.986023,210.680405 487.090393,218.893234 489.756500,226.156372 &#10;&#9;C492.152069,232.682495 497.940918,236.628754 505.215027,236.694458 &#10;&#9;C513.321472,236.767700 518.319641,233.058853 521.627441,223.792999 &#10;z" stroke="none" opacity="1.000000" fill="#000000"/>
<path d="M484.008911,330.174500 &#10;&#9;C482.672089,342.869873 483.614685,355.190521 483.385773,367.493805 &#10;&#9;C483.229248,375.902924 483.347198,375.905121 474.856750,375.916656 &#10;&#9;C460.722443,375.935791 460.728149,375.935791 460.729858,362.063599 &#10;&#9;C460.733368,333.426575 460.832275,304.788818 460.632111,276.153168 &#10;&#9;C460.597595,271.217957 461.884094,269.041443 467.068817,269.606750 &#10;&#9;C470.359528,269.965515 473.753601,269.966522 477.043732,269.604431 &#10;&#9;C482.268982,269.029358 483.662842,271.280823 483.446136,276.186707 &#10;&#9;C483.101135,283.996948 483.320221,291.833221 483.352661,299.658264 &#10;&#9;C483.359436,301.286285 482.961945,302.974670 483.968475,304.914551 &#10;&#9;C486.360229,303.961517 488.718292,302.815796 491.196411,302.067535 &#10;&#9;C508.968964,296.700806 524.612122,307.912964 525.221375,326.941895 &#10;&#9;C525.695190,341.744781 525.253113,356.575348 525.388916,371.392029 &#10;&#9;C525.419495,374.728729 523.943298,375.863586 520.944031,375.857635 &#10;&#9;C516.615601,375.849060 512.285706,375.796539 507.959229,375.889923 &#10;&#9;C504.223389,375.970581 502.648834,374.499390 502.703308,370.546326 &#10;&#9;C502.877655,357.895416 502.855591,345.238892 502.692383,332.587341 &#10;&#9;C502.595276,325.061981 498.593201,321.363281 491.917053,322.071167 &#10;&#9;C487.256653,322.565308 484.799438,325.267395 484.008911,330.174500 &#10;z" stroke="none" opacity="1.000000" fill="#000000"/>
<path d="M782.928040,228.000000 &#10;&#9;C782.930054,204.166977 782.910583,180.833939 782.946106,157.500961 &#10;&#9;C782.957764,149.853668 783.023193,149.853546 790.874329,149.844437 &#10;&#9;C794.040955,149.840759 797.221741,150.026672 800.370789,149.789886 &#10;&#9;C804.794373,149.457275 806.213623,151.446381 806.177002,155.670547 &#10;&#9;C806.045593,170.835800 806.137695,186.002975 806.144958,201.169434 &#10;&#9;C806.145874,203.150497 806.145020,205.131577 806.145020,208.763199 &#10;&#9;C811.387268,201.619385 816.087036,195.894547 819.999512,189.674469 &#10;&#9;C823.315491,184.402634 827.381836,182.099686 833.585632,182.806717 &#10;&#9;C838.494629,183.366196 843.518860,182.431290 848.367432,183.309692 &#10;&#9;C849.408569,185.769455 847.633057,186.960312 846.642151,188.349060 &#10;&#9;C840.642944,196.757614 834.693848,205.206360 828.484070,213.458069 &#10;&#9;C826.218201,216.468948 826.164734,218.802948 828.319092,221.906372 &#10;&#9;C834.589722,230.939377 840.604248,240.151077 846.654724,249.335175 &#10;&#9;C847.814697,251.095932 849.437561,252.678040 849.569641,255.638062 &#10;&#9;C844.058289,256.777832 838.423157,255.696472 832.929993,256.282928 &#10;&#9;C826.757141,256.941895 822.681274,254.998550 819.631836,249.301392 &#10;&#9;C815.965332,242.451355 811.340515,236.114273 806.116882,229.727249 &#10;&#9;C806.116882,236.611755 805.971802,243.500458 806.170288,250.379242 &#10;&#9;C806.293335,254.644272 804.718140,256.514740 800.340576,256.240906 &#10;&#9;C796.522217,256.002075 792.663452,255.983566 788.847412,256.239227 &#10;&#9;C784.142761,256.554443 782.741638,254.414612 782.886047,249.997726 &#10;&#9;C783.120056,242.839020 782.935669,235.666611 782.928040,228.000000 &#10;z" stroke="none" opacity="1.000000" fill="#000000"/>
<path d="M709.169189,253.673431 &#10;&#9;C708.275757,256.430084 706.258057,256.116821 704.485474,256.155853 &#10;&#9;C701.158813,256.229095 697.821411,256.035522 694.503418,256.220398 &#10;&#9;C691.265930,256.400818 688.917725,255.565170 688.316162,251.378845 &#10;&#9;C677.579041,258.065826 666.507324,259.150177 655.091248,254.989532 &#10;&#9;C647.497986,252.222137 641.707214,247.111023 637.349182,240.294495 &#10;&#9;C628.348328,226.215942 630.000061,205.865372 641.299072,193.351929 &#10;&#9;C650.672302,182.971237 669.272888,176.448547 687.637939,187.261627 &#10;&#9;C689.334961,186.119934 689.227783,182.870972 692.268982,182.967728 &#10;&#9;C697.402344,183.131058 702.630798,182.108032 707.641846,183.526947 &#10;&#9;C710.026672,184.202240 709.276917,186.916946 709.278992,188.807343 &#10;&#9;C709.302612,210.274292 709.259949,231.741318 709.169189,253.673431 &#10;M687.579834,223.762070 &#10;&#9;C687.659607,222.102783 687.835327,220.441666 687.803528,218.784515 &#10;&#9;C687.583496,207.304321 677.716309,199.908615 666.604614,202.860641 &#10;&#9;C658.632568,204.978546 653.840881,211.921143 654.381409,220.570770 &#10;&#9;C654.923340,229.242599 660.053467,235.196838 668.153320,236.555023 &#10;&#9;C676.908447,238.023087 684.056274,233.573410 687.579834,223.762070 &#10;z" stroke="none" opacity="1.000000" fill="#000000"/>
<path d="M595.826416,375.680481 &#10;&#9;C593.089478,375.240326 592.988647,373.175049 592.384216,370.934814 &#10;&#9;C582.114563,377.412933 571.363586,378.615326 560.193420,374.905579 &#10;&#9;C552.681335,372.410706 546.724854,367.643280 542.296082,361.125977 &#10;&#9;C532.346802,346.484924 533.781311,325.901672 545.523071,312.952454 &#10;&#9;C557.060547,300.228546 574.849854,297.824707 592.027954,306.934479 &#10;&#9;C593.088257,301.606537 597.276428,302.696075 600.926147,302.688477 &#10;&#9;C613.316223,302.662659 613.319214,302.681702 613.318787,315.110260 &#10;&#9;C613.318176,333.427826 613.182739,351.747009 613.404175,370.061859 &#10;&#9;C613.457458,374.464783 611.950562,376.115875 607.713806,375.911591 &#10;&#9;C603.891968,375.727295 600.057983,375.796143 595.826416,375.680481 &#10;M591.237915,333.570984 &#10;&#9;C587.842346,324.237915 579.807739,320.010284 570.280151,322.543488 &#10;&#9;C561.847656,324.785553 556.673706,334.033539 558.846863,342.979340 &#10;&#9;C561.180542,352.585449 569.459229,358.048553 578.526367,355.965729 &#10;&#9;C588.873657,353.588806 592.713196,347.182648 591.237915,333.570984 &#10;z" stroke="none" opacity="1.000000" fill="#000000"/>
<path d="M744.523376,316.503540 &#10;&#9;C740.504272,322.057220 736.825745,327.420380 732.853577,332.556396 &#10;&#9;C730.380249,335.754272 730.086792,338.338013 732.604248,341.858734 &#10;&#9;C738.803406,350.528168 744.566711,359.509979 750.468323,368.390747 &#10;&#9;C751.740051,370.304535 752.856079,372.321747 754.135620,374.443359 &#10;&#9;C750.860535,376.918121 747.405212,375.375793 744.280518,375.945007 &#10;&#9;C732.621094,378.069122 724.627136,374.005646 719.885986,362.820282 &#10;&#9;C717.774658,357.839355 714.127136,353.509583 710.266663,348.956299 &#10;&#9;C710.266663,355.763000 709.971313,362.586731 710.362793,369.370850 &#10;&#9;C710.660522,374.529846 708.604309,376.268311 703.738098,375.959930 &#10;&#9;C699.753723,375.707458 695.744751,375.838776 691.746582,375.810242 &#10;&#9;C689.007568,375.790710 687.548401,374.852142 687.557068,371.685059 &#10;&#9;C687.646973,339.026550 687.637024,306.367645 687.586487,273.708984 &#10;&#9;C687.581726,270.629578 688.945679,269.613708 691.831238,269.679596 &#10;&#9;C696.160828,269.778442 700.507263,269.874695 704.823608,269.604950 &#10;&#9;C709.027893,269.342163 710.331970,271.101776 710.294434,275.148865 &#10;&#9;C710.152222,290.477051 710.254639,305.807526 710.265320,321.137146 &#10;&#9;C710.266541,322.919250 710.265503,324.701385 711.408936,326.945435 &#10;&#9;C715.855286,320.856110 720.597656,314.955963 724.649170,308.614319 &#10;&#9;C727.595825,304.002228 731.066101,302.056732 736.561401,302.547974 &#10;&#9;C741.955200,303.030151 747.425781,302.653046 754.467590,302.653046 &#10;&#9;C750.635193,307.996735 747.687500,312.106903 744.523376,316.503540 &#10;z" stroke="none" opacity="1.000000" fill="#000000"/>
<path d="M263.755371,351.772308 &#10;&#9;C276.040405,336.187622 288.109467,320.885925 300.185883,305.590057 &#10;&#9;C300.908112,304.675293 301.674652,303.794220 302.444794,302.918793 &#10;&#9;C309.172150,295.271973 315.654480,295.193878 321.997101,303.069397 &#10;&#9;C333.177094,316.951477 344.152283,330.998505 355.218445,344.972290 &#10;&#9;C358.527710,349.151031 361.839600,353.327759 365.176544,357.484375 &#10;&#9;C370.434601,364.034027 370.600128,370.761780 365.574432,374.802704 &#10;&#9;C360.407776,378.957001 353.400604,377.512939 348.180450,370.964508 &#10;&#9;C337.483856,357.546173 326.898651,344.039062 316.262848,330.572235 &#10;&#9;C315.140442,329.151093 314.233917,327.506042 312.221008,326.572662 &#10;&#9;C308.089020,329.933899 305.170929,334.396667 301.895294,338.520782 &#10;&#9;C292.986877,349.736847 284.221954,361.067596 275.252136,372.233948 &#10;&#9;C270.949982,377.589600 263.989594,378.706512 259.224213,375.180573 &#10;&#9;C254.632782,371.783356 253.924591,365.091583 257.602509,359.458160 &#10;&#9;C258.328491,358.346161 259.187561,357.317566 260.024811,356.282501 &#10;&#9;C261.177155,354.857941 262.367157,353.463806 263.755371,351.772308 &#10;z" stroke="none" opacity="1.000000" fill="#000000"/>
<path d="M621.356567,192.055298 &#10;&#9;C621.353027,204.033997 621.419373,215.520294 621.328125,227.005356 &#10;&#9;C621.179199,245.749344 608.746643,257.822845 589.575134,257.965790 &#10;&#9;C570.158203,258.110565 557.032654,245.998398 556.744019,227.362793 &#10;&#9;C556.540466,214.215546 556.790527,201.061630 556.636963,187.913040 &#10;&#9;C556.593750,184.215424 558.022644,182.786514 561.605225,182.884796 &#10;&#9;C565.929749,183.003418 570.265198,183.030701 574.586548,182.860519 &#10;&#9;C578.353149,182.712204 579.442749,184.452179 579.402954,187.993942 &#10;&#9;C579.270203,199.811020 579.396362,211.630798 579.344055,223.449188 &#10;&#9;C579.332092,226.151978 579.521484,228.811203 580.625366,231.263611 &#10;&#9;C582.296814,234.977081 585.323059,236.801437 589.390015,236.652969 &#10;&#9;C593.392944,236.506866 596.353333,234.776794 597.798035,230.806885 &#10;&#9;C598.556763,228.722015 598.720520,226.606918 598.721252,224.431808 &#10;&#9;C598.725098,212.446716 598.875061,200.459778 598.697998,188.477554 &#10;&#9;C598.637817,184.403885 600.028198,182.620819 604.146545,182.866379 &#10;&#9;C606.965820,183.034485 609.804077,182.874023 612.633850,182.879547 &#10;&#9;C621.322815,182.896454 621.322815,182.900040 621.356567,192.055298 &#10;z" stroke="none" opacity="1.000000" fill="#000000"/>
<path d="M363.580627,308.333008 &#10;&#9;C359.387604,314.906281 350.540161,313.718964 346.314423,308.306335 &#10;&#9;C338.634552,298.469330 330.835236,288.725372 323.061737,278.961700 &#10;&#9;C319.673676,274.706207 316.226257,270.497925 312.570587,265.977356 &#10;&#9;C306.629486,271.319336 302.716309,277.524780 298.137939,283.138672 &#10;&#9;C291.724915,291.002136 285.547211,299.057556 279.269012,307.030945 &#10;&#9;C278.754639,307.684174 278.288635,308.382935 277.719757,308.984467 &#10;&#9;C273.408417,313.543304 267.042480,314.317322 262.910767,310.808716 &#10;&#9;C258.859406,307.368347 258.288025,301.342499 262.009155,296.382324 &#10;&#9;C267.299408,289.330536 272.891174,282.504730 278.363190,275.589569 &#10;&#9;C286.519562,265.282135 294.615051,254.925446 302.867767,244.695633 &#10;&#9;C308.864441,237.262375 315.563141,237.239716 321.492249,244.663452 &#10;&#9;C334.990051,261.563751 348.388153,278.543915 361.780487,295.528107 &#10;&#9;C364.723816,299.260895 366.257843,303.339355 363.580627,308.333008 &#10;z" stroke="none" opacity="1.000000" fill="#000000"/>
<path d="M275.031921,224.043671 &#10;&#9;C284.454590,212.146530 293.623383,200.499969 302.874969,188.919586 &#10;&#9;C309.101318,181.125977 315.099060,180.935104 321.247070,188.593231 &#10;&#9;C333.758698,204.178070 346.119873,219.884277 358.466522,235.600555 &#10;&#9;C362.405853,240.614960 362.281403,246.872482 358.454254,250.035660 &#10;&#9;C354.241547,253.517532 348.073761,252.657898 343.878174,247.479660 &#10;&#9;C334.650177,236.090302 325.666870,224.502853 316.546814,213.025589 &#10;&#9;C315.323853,211.486542 314.398438,209.622726 311.983673,208.510178 &#10;&#9;C305.710297,214.952606 300.596008,222.520325 294.867371,229.563965 &#10;&#9;C289.928894,235.636017 285.241577,241.915024 280.222565,247.918015 &#10;&#9;C276.319885,252.585831 270.565247,253.418167 266.426514,250.316010 &#10;&#9;C262.224213,247.166199 261.588776,241.569595 265.222626,236.481873 &#10;&#9;C268.219543,232.285889 271.601807,228.365143 275.031921,224.043671 &#10;z" stroke="none" opacity="1.000000" fill="#000000"/>
<path d="M727.478516,196.558640 &#10;&#9;C738.409119,183.342621 752.530762,180.664108 768.266174,182.698776 &#10;&#9;C770.632812,183.004776 771.320374,184.301605 771.309204,186.405685 &#10;&#9;C771.286377,190.734573 771.223938,195.065414 771.324097,199.392059 &#10;&#9;C771.397705,202.570419 769.826416,203.622849 766.963806,203.030426 &#10;&#9;C763.293152,202.270782 759.692444,202.548904 756.079590,203.348175 &#10;&#9;C747.896423,205.158554 743.253418,210.909958 743.197815,219.352783 &#10;&#9;C743.139893,228.149429 747.319702,233.648376 755.584778,235.680496 &#10;&#9;C759.345215,236.605042 763.092773,236.977249 766.943787,236.097565 &#10;&#9;C769.828186,235.438721 771.381409,236.637817 771.322266,239.757019 &#10;&#9;C771.256042,243.252243 771.341675,246.750076 771.318298,250.246475 &#10;&#9;C771.276489,256.497284 770.947937,256.781128 764.499634,257.175812 &#10;&#9;C749.133057,258.116302 735.286743,254.685989 726.541687,241.003204 &#10;&#9;C717.239563,226.448746 718.004700,211.423141 727.478516,196.558640 &#10;z" stroke="none" opacity="1.000000" fill="#000000"/>
<path d="M805.322144,354.891785 &#10;&#9;C804.239990,367.101868 796.846436,374.455414 784.138489,376.113495 &#10;&#9;C777.680481,376.956116 771.178040,376.493774 764.692566,376.178009 &#10;&#9;C761.401978,376.017731 759.911926,374.423920 760.054626,371.092560 &#10;&#9;C760.196960,367.768707 760.170898,364.435425 760.140137,361.107025 &#10;&#9;C760.108337,357.662842 761.725952,356.267792 765.121399,356.790771 &#10;&#9;C768.738098,357.347839 772.360107,357.975281 776.041870,357.627838 &#10;&#9;C778.213379,357.422943 780.607178,357.191956 781.417175,354.777985 &#10;&#9;C782.295227,352.161194 780.543884,350.315063 778.686340,348.834930 &#10;&#9;C775.564697,346.347717 772.231201,344.122986 769.149231,341.590240 &#10;&#9;C763.976379,337.339233 760.166626,332.210236 759.727478,325.213593 &#10;&#9;C758.911133,312.206940 766.250366,303.970215 780.464111,301.976044 &#10;&#9;C782.268066,301.722931 784.115662,301.697571 785.942505,301.704468 &#10;&#9;C801.914734,301.764587 798.966064,301.839905 799.245178,316.381439 &#10;&#9;C799.298401,319.154266 797.968140,320.235657 795.243103,320.113678 &#10;&#9;C792.255310,319.979950 789.254089,319.997284 786.264587,320.107178 &#10;&#9;C784.585754,320.168884 782.818481,320.504150 782.372925,322.544617 &#10;&#9;C782.001892,324.243988 783.068542,325.400940 784.311157,326.314819 &#10;&#9;C787.260132,328.483826 790.317078,330.509674 793.217163,332.740570 &#10;&#9;C800.347900,338.225800 805.762390,344.714325 805.322144,354.891785 &#10;z" stroke="none" opacity="1.000000" fill="#000000"/>
<path d="M647.253601,374.048553 &#10;&#9;C632.062378,367.127289 624.577759,355.699829 624.576294,339.285187 &#10;&#9;C624.574890,323.601166 631.219360,312.050903 645.432617,305.272430 &#10;&#9;C653.634155,301.360962 662.480896,301.215057 671.368896,301.992157 &#10;&#9;C674.229980,302.242310 675.425476,303.716187 675.336731,306.586060 &#10;&#9;C675.213318,310.576416 675.194153,314.576813 675.329773,318.566162 &#10;&#9;C675.431824,321.569702 674.364075,322.749054 671.232971,322.494690 &#10;&#9;C667.440063,322.186554 663.621460,321.975952 659.826843,322.986298 &#10;&#9;C650.681580,325.421265 646.424622,331.715240 647.340027,341.715363 &#10;&#9;C648.045349,349.420319 653.963989,354.995483 662.431030,355.691071 &#10;&#9;C665.404480,355.935364 668.417358,355.807770 671.407532,355.708313 &#10;&#9;C674.130005,355.617767 675.377014,356.754456 675.324341,359.519745 &#10;&#9;C675.242004,363.845062 675.250244,368.173401 675.301575,372.499512 &#10;&#9;C675.330872,374.971436 674.199707,376.052948 671.755920,376.311920 &#10;&#9;C663.560669,377.180542 655.487000,376.941833 647.253601,374.048553 &#10;z" stroke="none" opacity="1.000000" fill="#000000"/>
</svg>